<svg width="26" height="29" viewBox="0 0 26 29" fill="none" xmlns="http://www.w3.org/2000/svg">
<path d="M2 26.9286H24V10.3571H2V26.9286ZM8 7.25V2.58929C8 2.43824 7.95312 2.31417 7.85938 2.21708C7.76562 2.11998 7.64583 2.07143 7.5 2.07143H6.5C6.35417 2.07143 6.23438 2.11998 6.14062 2.21708C6.04688 2.31417 6 2.43824 6 2.58929V7.25C6 7.40104 6.04688 7.52511 6.14062 7.62221C6.23438 7.71931 6.35417 7.76786 6.5 7.76786H7.5C7.64583 7.76786 7.76562 7.71931 7.85938 7.62221C7.95312 7.52511 8 7.40104 8 7.25ZM20 7.25V2.58929C20 2.43824 19.9531 2.31417 19.8594 2.21708C19.7656 2.11998 19.6458 2.07143 19.5 2.07143H18.5C18.3542 2.07143 18.2344 2.11998 18.1406 2.21708C18.0469 2.31417 18 2.43824 18 2.58929V7.25C18 7.40104 18.0469 7.52511 18.1406 7.62221C18.2344 7.71931 18.3542 7.76786 18.5 7.76786H19.5C19.6458 7.76786 19.7656 7.71931 19.8594 7.62221C19.9531 7.52511 20 7.40104 20 7.25ZM26 6.21429V26.9286C26 27.4896 25.8021 27.9751 25.4062 28.385C25.0104 28.795 24.5417 29 24 29H2C1.45833 29 0.989583 28.795 0.59375 28.385C0.197917 27.9751 0 27.4896 0 26.9286V6.21429C0 5.65327 0.197917 5.16778 0.59375 4.75781C0.989583 4.34784 1.45833 4.14286 2 4.14286H4V2.58929C4 1.87723 4.24479 1.26767 4.73438 0.760603C5.22396 0.253534 5.8125 0 6.5 0H7.5C8.1875 0 8.77604 0.253534 9.26562 0.760603C9.75521 1.26767 10 1.87723 10 2.58929V4.14286H16V2.58929C16 1.87723 16.2448 1.26767 16.7344 0.760603C17.224 0.253534 17.8125 0 18.5 0H19.5C20.1875 0 20.776 0.253534 21.2656 0.760603C21.7552 1.26767 22 1.87723 22 2.58929V4.14286H24C24.5417 4.14286 25.0104 4.34784 25.4062 4.75781C25.8021 5.16778 26 5.65327 26 6.21429Z" fill="#1C1C1C"/>
</svg>
