<svg width="29" height="25" viewBox="0 0 29 25" fill="none" xmlns="http://www.w3.org/2000/svg">
<path d="M14.5 2.08333C12.2991 2.08333 10.2412 2.46039 8.32617 3.21452C6.41118 3.96864 4.88997 4.98589 3.76256 6.26628C2.63514 7.54666 2.07143 8.93012 2.07143 10.4167C2.07143 11.6319 2.45712 12.7903 3.22852 13.8916C3.99991 14.9929 5.08687 15.9451 6.4894 16.748L7.89732 17.5618L7.46038 19.1243C7.20145 20.1118 6.82385 21.0449 6.32757 21.9238C7.96745 21.2402 9.45089 20.3125 10.7779 19.1406L11.4738 18.5221L12.3962 18.6198C13.1406 18.7066 13.8419 18.75 14.5 18.75C16.7009 18.75 18.7588 18.3729 20.6738 17.6188C22.5888 16.8647 24.11 15.8474 25.2374 14.5671C26.3649 13.2867 26.9286 11.9032 26.9286 10.4167C26.9286 8.93012 26.3649 7.54666 25.2374 6.26628C24.11 4.98589 22.5888 3.96864 20.6738 3.21452C18.7588 2.46039 16.7009 2.08333 14.5 2.08333ZM29 10.4167C29 12.3047 28.3527 14.0489 27.058 15.6494C25.7634 17.2499 24.0048 18.514 21.7824 19.4417C19.5599 20.3695 17.1324 20.8333 14.5 20.8333C13.7448 20.8333 12.9626 20.7899 12.1535 20.7031C10.0173 22.602 7.5359 23.9149 4.70926 24.6419C4.18062 24.7938 3.56566 24.9132 2.8644 25H2.78348C2.62165 25 2.476 24.943 2.34654 24.8291C2.21708 24.7152 2.13077 24.566 2.08761 24.3815V24.3652C2.05525 24.3218 2.05255 24.2567 2.07952 24.1699C2.10649 24.0831 2.11728 24.0289 2.11189 24.0072C2.10649 23.9855 2.13077 23.9339 2.18471 23.8525L2.28181 23.7061L2.39509 23.5677L2.52455 23.4212C2.60007 23.3344 2.7673 23.1472 3.02623 22.8597C3.28516 22.5722 3.47126 22.366 3.58454 22.2412C3.69782 22.1164 3.86505 21.9021 4.08622 21.5983C4.30738 21.2945 4.4827 21.0178 4.61216 20.7682C4.74163 20.5187 4.88728 20.1986 5.04911 19.8079C5.21094 19.4173 5.35119 19.005 5.46987 18.571C3.77604 17.6053 2.44094 16.4117 1.46456 14.9902C0.488188 13.5688 0 12.0443 0 10.4167C0 8.52865 0.647321 6.7844 1.94196 5.18392C3.23661 3.58344 4.99516 2.31934 7.21763 1.3916C9.4401 0.463867 11.8676 0 14.5 0C17.1324 0 19.5599 0.463867 21.7824 1.3916C24.0048 2.31934 25.7634 3.58344 27.058 5.18392C28.3527 6.7844 29 8.52865 29 10.4167Z" fill="#1C1C1C"/>
</svg>
