<svg width="24" height="24" viewBox="0 0 24 24" fill="none" xmlns="http://www.w3.org/2000/svg">
<path d="M23.0256 0.297018C22.4549 -0.072603 21.7274 -0.0991148 21.1313 0.227951L0.944393 11.2905C0.057266 11.7845 -0.261412 12.9041 0.232558 13.7912C0.488045 14.2499 0.92741 14.5775 1.43994 14.6914L6.20082 15.741L9.64727 23.6422C9.65422 23.6583 9.67073 23.6667 9.67905 23.6819C9.71241 23.7443 9.757 23.8 9.81042 23.8462C9.83051 23.865 9.85203 23.8823 9.87467 23.898C9.94247 23.9419 10.0187 23.9714 10.0984 23.9844C10.1106 23.9864 10.1197 23.996 10.132 23.9973L10.1389 23.9962L10.1425 23.9972C10.1831 24.0014 10.2239 24.0009 10.2642 23.9957C10.3167 23.9876 10.368 23.9723 10.4164 23.9503C10.4258 23.9465 10.4357 23.946 10.4449 23.9417C10.5272 23.9013 10.5988 23.8424 10.6543 23.7695C10.6608 23.7613 10.6718 23.7587 10.678 23.75L13.7787 19.3946L19.4562 22.8078C19.8014 23.0175 20.207 23.1058 20.6081 23.0583C21.4758 22.9556 22.1529 22.2593 22.2314 21.3892L23.8526 1.98236C23.9089 1.31101 23.591 0.66324 23.0256 0.297018ZM10.1568 16.8493L9.80048 21.0142L7.37369 15.4494L15.4956 9.9203L10.282 16.531C10.21 16.6225 10.1664 16.7332 10.1568 16.8493ZM21.0445 21.2881C21.0249 21.5112 20.8906 21.7082 20.69 21.808C20.4947 21.9108 20.2595 21.9031 20.0714 21.7873L13.9198 18.0893C13.6535 17.9292 13.3088 18.0011 13.1286 18.2543L10.9724 21.2828L11.3286 17.129L18.8284 7.6182C19.0323 7.36017 18.9884 6.98578 18.7304 6.78196C18.5263 6.62061 18.2411 6.61052 18.0261 6.75703L6.51938 14.5906L1.69485 13.5273C1.43244 13.474 1.23294 13.2599 1.19842 12.9943C1.15458 12.728 1.284 12.4631 1.52108 12.3341L21.7046 1.27315C21.9149 1.15305 22.175 1.16222 22.3764 1.29688C22.5757 1.42226 22.6873 1.64931 22.6648 1.88371L21.0445 21.2881Z" fill="black"/>
</svg>
