<svg width="30" height="25" viewBox="0 0 30 25" fill="none" xmlns="http://www.w3.org/2000/svg">
<path fill-rule="evenodd" clip-rule="evenodd" d="M12.9052 24.6328L13.0693 24.7734C13.2647 24.9141 13.507 25 13.765 25C14.445 25 15 24.4219 15 23.7031V12.5098C15.0006 13.1106 15.2584 13.6488 15.6722 14.0078L27.9052 24.6328L28.0693 24.7734C28.2647 24.9141 28.507 25 28.765 25C29.445 25 30 24.4219 30 23.7031V1.29687C30 0.578125 29.445 0 28.765 0C28.5149 0 28.2804 0.0781248 28.0849 0.210937L27.8817 0.390625L15.6722 11.0078C15.2662 11.3668 15.0006 11.9051 15 12.5058V1.29687C15 0.578125 14.445 0 13.765 0C13.5149 0 13.2804 0.0781248 13.0849 0.210937L12.8817 0.390625L0.672225 11.0078C0.265763 11.3672 0 11.9063 0 12.5078C0 13.1094 0.257947 13.6484 0.672225 14.0078L12.9052 24.6328Z" fill="#1C1C1C"/>
</svg>
