<svg width="36" height="34" viewBox="0 0 36 34" fill="none" xmlns="http://www.w3.org/2000/svg">
<path d="M11.0855 17C9.06655 17.0632 7.41525 17.8728 6.13159 19.4286H3.62662C2.60468 19.4286 1.74476 19.1724 1.04687 18.6602C0.348955 18.1479 0 17.3984 0 16.4118C0 11.9468 0.772679 9.71429 2.31804 9.71429C2.39281 9.71429 2.66387 9.8471 3.13122 10.1127C3.59857 10.3784 4.20612 10.6471 4.95388 10.9191C5.70163 11.191 6.44316 11.327 7.17846 11.327C8.01345 11.327 8.84221 11.1815 9.66474 10.8906C9.60244 11.3586 9.57129 11.776 9.57129 12.1429C9.57129 13.901 10.076 15.5201 11.0855 17ZM31.1067 29.0859C31.1067 30.6038 30.6518 31.8023 29.742 32.6814C28.8322 33.5605 27.6234 34 26.1154 34H9.77691C8.26894 34 7.06007 33.5605 6.1503 32.6814C5.24052 31.8023 4.78563 30.6038 4.78563 29.0859C4.78563 28.4155 4.80744 27.761 4.85107 27.1222C4.89469 26.4834 4.98193 25.7941 5.11279 25.0541C5.24365 24.3142 5.40877 23.628 5.60817 22.9955C5.80757 22.3631 6.07551 21.7465 6.412 21.1456C6.74849 20.5448 7.13484 20.0325 7.57103 19.6088C8.00723 19.1851 8.54 18.8467 9.16936 18.5938C9.79872 18.3408 10.4935 18.2143 11.2537 18.2143C11.3784 18.2143 11.6463 18.3503 12.0576 18.6222C12.4688 18.8942 12.9237 19.1977 13.4222 19.5329C13.9207 19.8681 14.5875 20.1717 15.4225 20.4436C16.2575 20.7156 17.0987 20.8516 17.9461 20.8516C18.7936 20.8516 19.6348 20.7156 20.4698 20.4436C21.3048 20.1717 21.9716 19.8681 22.4701 19.5329C22.9686 19.1977 23.4235 18.8942 23.8347 18.6222C24.246 18.3503 24.5139 18.2143 24.6386 18.2143C25.3988 18.2143 26.0936 18.3408 26.7229 18.5938C27.3523 18.8467 27.8851 19.1851 28.3213 19.6088C28.7575 20.0325 29.1438 20.5448 29.4803 21.1456C29.8168 21.7465 30.0847 22.3631 30.2841 22.9955C30.4835 23.628 30.6487 24.3142 30.7795 25.0541C30.9104 25.7941 30.9976 26.4834 31.0412 27.1222C31.0849 27.761 31.1067 28.4155 31.1067 29.0859ZM11.9641 4.85715C11.9641 6.19792 11.4967 7.34264 10.562 8.2913C9.62735 9.23996 8.49949 9.71429 7.17846 9.71429C5.85743 9.71429 4.72956 9.23996 3.79487 8.2913C2.86017 7.34264 2.39283 6.19792 2.39283 4.85715C2.39283 3.51637 2.86017 2.37165 3.79487 1.42299C4.72956 0.47433 5.85743 0 7.17846 0C8.49949 0 9.62735 0.47433 10.562 1.42299C11.4967 2.37165 11.9641 3.51637 11.9641 4.85715ZM25.1246 12.1429C25.1246 14.154 24.4236 15.8711 23.0215 17.2941C21.6195 18.7171 19.9277 19.4286 17.9461 19.4286C15.9646 19.4286 14.2728 18.7171 12.8708 17.2941C11.4687 15.8711 10.7677 14.154 10.7677 12.1429C10.7677 10.1317 11.4687 8.41463 12.8708 6.99164C14.2728 5.56865 15.9646 4.85715 17.9461 4.85715C19.9277 4.85715 21.6195 5.56865 23.0215 6.99164C24.4236 8.41463 25.1246 10.1317 25.1246 12.1429ZM35.8923 16.4118C35.8923 17.3984 35.5433 18.1479 34.8454 18.6602C34.1475 19.1724 33.2876 19.4286 32.2657 19.4286H29.7607C28.477 17.8728 26.8257 17.0632 24.8068 17C25.8163 15.5201 26.321 13.901 26.321 12.1429C26.321 11.776 26.2899 11.3586 26.2276 10.8906C27.0501 11.1815 27.8788 11.327 28.7138 11.327C29.4491 11.327 30.1907 11.191 30.9384 10.9191C31.6862 10.6471 32.2937 10.3784 32.7611 10.1127C33.2284 9.8471 33.4995 9.71429 33.5743 9.71429C35.1196 9.71429 35.8923 11.9468 35.8923 16.4118ZM33.4995 4.85715C33.4995 6.19792 33.0321 7.34264 32.0974 8.2913C31.1627 9.23996 30.0349 9.71429 28.7138 9.71429C27.3928 9.71429 26.2649 9.23996 25.3302 8.2913C24.3956 7.34264 23.9282 6.19792 23.9282 4.85715C23.9282 3.51637 24.3956 2.37165 25.3302 1.42299C26.2649 0.47433 27.3928 0 28.7138 0C30.0349 0 31.1627 0.47433 32.0974 1.42299C33.0321 2.37165 33.4995 3.51637 33.4995 4.85715Z" fill="#1C1C1C"/>
</svg>
