<svg width="67" height="26" viewBox="0 0 67 26" fill="none" xmlns="http://www.w3.org/2000/svg">
<path fill-rule="evenodd" clip-rule="evenodd" d="M60.2308 3.43252V2.57439C60.2308 1.89162 59.9633 1.23681 59.4873 0.754021C59.0112 0.27123 58.3656 0 57.6923 0H54.3077C53.6344 0 52.9888 0.27123 52.5127 0.754021C52.0367 1.23681 51.7692 1.89162 51.7692 2.57439V3.43252H45.8462C45.6217 3.43252 45.4065 3.52293 45.2478 3.68386C45.0891 3.84479 45 4.06306 45 4.29065C45 4.51824 45.0891 4.73651 45.2478 4.89744C45.4065 5.05837 45.6217 5.14878 45.8462 5.14878H46.6923V23.0923C46.6923 23.7754 46.9597 24.4301 47.4361 24.9124C47.6716 25.1516 47.9514 25.3414 48.2593 25.4708C48.5673 25.6002 48.8974 25.6668 49.2308 25.6667H62.7692C63.4428 25.6667 64.0884 25.3955 64.5639 24.9124C64.7998 24.6735 64.9869 24.3898 65.1145 24.0774C65.2422 23.7651 65.3078 23.4304 65.3077 23.0923V5.14878H66.1538C66.3783 5.14878 66.5935 5.05837 66.7522 4.89744C66.9109 4.73651 67 4.51824 67 4.29065C67 4.06306 66.9109 3.84479 66.7522 3.68386C66.5935 3.52293 66.3783 3.43252 66.1538 3.43252H60.2308ZM63.6154 5.14878V23.0923C63.6157 23.2051 63.5941 23.3168 63.5517 23.4211C63.5093 23.5253 63.4469 23.6201 63.3683 23.6998C63.2897 23.7796 63.1962 23.8428 63.0934 23.8858C62.9906 23.9288 62.8804 23.9507 62.7692 23.9504H49.2308C49.1196 23.9507 49.0094 23.9288 48.9066 23.8858C48.8038 23.8428 48.7103 23.7796 48.6317 23.6998C48.5531 23.6201 48.4907 23.5253 48.4483 23.4211C48.4059 23.3168 48.3843 23.2051 48.3846 23.0923V5.14878H63.6154ZM58.5385 3.43252H53.4615V2.57439C53.4615 2.3468 53.5507 2.12853 53.7094 1.9676C53.8681 1.80667 54.0833 1.71626 54.3077 1.71626H57.6923C57.9167 1.71626 58.1319 1.80667 58.2906 1.9676C58.4493 2.12853 58.5385 2.3468 58.5385 2.57439V3.43252Z" fill="#1C1C1C"/>
<path d="M51.4165 9.16635L51.4165 20.1664" stroke="#1C1C1C" stroke-width="1.5" stroke-linecap="round"/>
<path d="M56 9.16635L56 20.1664" stroke="#1C1C1C" stroke-width="1.5" stroke-linecap="round"/>
<path d="M60.5835 9.16635L60.5835 20.1664" stroke="#1C1C1C" stroke-width="1.5" stroke-linecap="round"/>
<path d="M20.2892 18.9231H22.0535V23.3462C22.0535 24.05 21.7746 24.725 21.2783 25.2227C20.782 25.7204 20.1089 26 19.407 26H2.64641C1.94454 26 1.27142 25.7204 0.775117 25.2227C0.278818 24.725 0 24.05 0 23.3462V5.65385C0 4.95 0.278818 4.27499 0.775117 3.77729C1.27142 3.2796 1.94454 3 2.64641 3H19.407C20.1089 3 20.782 3.2796 21.2783 3.77729C21.7746 4.27499 22.0535 4.95 22.0535 5.65385V6.67115H20.2892V5.65385C20.2892 5.41923 20.1962 5.19423 20.0308 5.02833C19.8654 4.86243 19.641 4.76923 19.407 4.76923H2.64641C2.41246 4.76923 2.18808 4.86243 2.02265 5.02833C1.85722 5.19423 1.76428 5.41923 1.76428 5.65385V23.3462C1.76428 23.5808 1.85722 23.8058 2.02265 23.9717C2.18808 24.1376 2.41246 24.2308 2.64641 24.2308H19.407C19.641 24.2308 19.8654 24.1376 20.0308 23.9717C20.1962 23.8058 20.2892 23.5808 20.2892 23.3462V18.9231ZM24.9998 11.1031C25.0007 11.453 24.9325 11.7996 24.7993 12.1229C24.6661 12.4463 24.4704 12.7401 24.2235 12.9873L22.8209 14.385L16.1431 21.0904C16.0068 21.2255 15.8303 21.3125 15.6403 21.3381L12.7293 21.7627H12.5969C12.3643 21.7594 12.1423 21.664 11.9794 21.4973C11.8813 21.4007 11.807 21.2823 11.7626 21.1518C11.7182 21.0212 11.7048 20.882 11.7236 20.7454L12.147 17.8262C12.1726 17.6356 12.2593 17.4586 12.394 17.3219L19.0807 10.6254L20.4744 9.19231C20.9807 8.71137 21.6516 8.44332 22.349 8.44332C23.0464 8.44332 23.7172 8.71137 24.2235 9.19231C24.4736 9.4427 24.6711 9.74077 24.8044 10.0689C24.9377 10.3971 25.0042 10.7487 24.9998 11.1031ZM20.9508 13.7569L19.707 12.5096L13.8496 18.3746L13.6379 19.8077L15.1022 19.5954L20.9508 13.7569ZM23.2355 11.1031C23.2322 10.8697 23.1371 10.6472 22.9709 10.4838C22.8056 10.3191 22.582 10.2266 22.349 10.2266C22.1159 10.2266 21.8923 10.3191 21.7271 10.4838L20.9508 11.2623L22.1946 12.5096L22.9709 11.7312C23.0542 11.6492 23.1205 11.5515 23.166 11.4437C23.2114 11.3359 23.235 11.2201 23.2355 11.1031ZM10.5857 21.5769V19.8077H4.41069V21.5769H10.5857Z" fill="black"/>
</svg>
