<svg width="25" height="25" viewBox="0 0 25 25" fill="none" xmlns="http://www.w3.org/2000/svg">
<path d="M12.5009 16.8269C15.4216 16.8269 17.7893 14.4592 17.7893 11.5385C17.7893 8.61772 15.4216 6.25 12.5009 6.25C9.58013 6.25 7.2124 8.61772 7.2124 11.5385C7.2124 14.4592 9.58013 16.8269 12.5009 16.8269Z" fill="black"/>
<path d="M12.5 0C10.0277 0 7.61099 0.733112 5.55538 2.10663C3.49976 3.48015 1.89761 5.43238 0.951511 7.71645C0.00541606 10.0005 -0.242126 12.5139 0.24019 14.9386C0.722505 17.3634 1.91301 19.5907 3.66117 21.3388C5.40933 23.087 7.63661 24.2775 10.0614 24.7598C12.4861 25.2421 14.9995 24.9946 17.2835 24.0485C19.5676 23.1024 21.5199 21.5002 22.8934 19.4446C24.2669 17.389 25 14.9723 25 12.5C24.9963 9.18594 23.6781 6.0087 21.3347 3.66531C18.9913 1.32192 15.8141 0.00375093 12.5 0ZM20.4036 19.5204C19.6317 18.4022 18.6308 17.4609 17.4672 16.7591C16.1292 18.0369 14.3502 18.75 12.5 18.75C10.6498 18.75 8.8708 18.0369 7.5328 16.7591C6.36923 17.4609 5.36826 18.4022 4.59636 19.5204C3.2412 17.9966 2.35544 16.1135 2.04574 14.098C1.73604 12.0824 2.0156 10.0202 2.85076 8.15987C3.68593 6.2995 5.04108 4.72022 6.75304 3.6122C8.46499 2.50419 10.4608 1.91469 12.5 1.91469C14.5392 1.91469 16.535 2.50419 18.2469 3.6122C19.9589 4.72022 21.314 6.2995 22.1492 8.15987C22.9844 10.0202 23.2639 12.0824 22.9542 14.098C22.6445 16.1135 21.7588 17.9966 20.4036 19.5204Z" fill="black"/>
</svg>
