<svg width="22" height="26" viewBox="0 0 22 26" fill="none" xmlns="http://www.w3.org/2000/svg">
<path fill-rule="evenodd" clip-rule="evenodd" d="M15.2308 3.43252V2.57439C15.2308 1.89162 14.9633 1.23681 14.4873 0.754021C14.0112 0.27123 13.3656 0 12.6923 0H9.30769C8.63445 0 7.98878 0.27123 7.51273 0.754021C7.03668 1.23681 6.76923 1.89162 6.76923 2.57439V3.43252H0.846154C0.62174 3.43252 0.406517 3.52293 0.247833 3.68386C0.0891481 3.84479 0 4.06306 0 4.29065C0 4.51824 0.0891481 4.73651 0.247833 4.89744C0.406517 5.05837 0.62174 5.14878 0.846154 5.14878H1.69231V23.0923C1.69231 23.7754 1.95969 24.4301 2.43608 24.9124C2.67163 25.1516 2.95139 25.3414 3.25935 25.4708C3.56731 25.6002 3.89741 25.6668 4.23077 25.6667H17.7692C18.4428 25.6667 19.0884 25.3955 19.5639 24.9124C19.7998 24.6735 19.9869 24.3898 20.1145 24.0774C20.2422 23.7651 20.3078 23.4304 20.3077 23.0923V5.14878H21.1538C21.3783 5.14878 21.5935 5.05837 21.7522 4.89744C21.9109 4.73651 22 4.51824 22 4.29065C22 4.06306 21.9109 3.84479 21.7522 3.68386C21.5935 3.52293 21.3783 3.43252 21.1538 3.43252H15.2308ZM18.6154 5.14878V23.0923C18.6157 23.2051 18.5941 23.3168 18.5517 23.4211C18.5093 23.5253 18.4469 23.6201 18.3683 23.6998C18.2897 23.7796 18.1962 23.8428 18.0934 23.8858C17.9906 23.9288 17.8804 23.9507 17.7692 23.9504H4.23077C4.11956 23.9507 4.00938 23.9288 3.90656 23.8858C3.80375 23.8428 3.71034 23.7796 3.6317 23.6998C3.55306 23.6201 3.49075 23.5253 3.44834 23.4211C3.40594 23.3168 3.38428 23.2051 3.38462 23.0923V5.14878H18.6154ZM13.5385 3.43252H8.46154V2.57439C8.46154 2.3468 8.55069 2.12853 8.70937 1.9676C8.86806 1.80667 9.08328 1.71626 9.30769 1.71626H12.6923C12.9167 1.71626 13.1319 1.80667 13.2906 1.9676C13.4493 2.12853 13.5385 2.3468 13.5385 2.57439V3.43252Z" fill="#1C1C1C"/>
<path d="M6.41663 9.16635L6.41663 20.1664" stroke="#1C1C1C" stroke-width="1.5" stroke-linecap="round"/>
<path d="M11 9.16635L11 20.1664" stroke="#1C1C1C" stroke-width="1.5" stroke-linecap="round"/>
<path d="M15.5834 9.16635L15.5834 20.1664" stroke="#1C1C1C" stroke-width="1.5" stroke-linecap="round"/>
</svg>
