<svg width="29" height="29" viewBox="0 0 29 29" fill="none" xmlns="http://www.w3.org/2000/svg">
<path d="M10.9165 20.8331C16.3933 20.8331 20.8331 16.3933 20.8331 10.9165C20.8331 5.43979 16.3933 1 10.9165 1C5.43979 1 1 5.43979 1 10.9165C1 16.3933 5.43979 20.8331 10.9165 20.8331Z" stroke="#1C1C1C" stroke-width="2" stroke-miterlimit="10"/>
<path d="M28.3164 25.017L19.7765 16.4772C19.6436 16.3476 19.496 16.234 19.3367 16.1388C18.5302 17.4359 17.436 18.5301 16.1389 19.3366C16.2334 19.4929 16.3419 19.6423 16.4772 19.7764L25.0171 28.3163C25.4733 28.7725 26.0695 29 26.6668 29C27.2641 29 27.8603 28.7725 28.3164 28.3163C28.7539 27.8788 28.9996 27.2854 28.9996 26.6667C28.9996 26.048 28.7539 25.4546 28.3164 25.017Z" fill="#1C1C1C"/>
</svg>
