<svg width="116" height="86" viewBox="0 0 116 86" fill="none" xmlns="http://www.w3.org/2000/svg">
<path d="M67.3929 1.12168C65.587 4.01934 43.0816 83.0841 43.7762 84.188C44.193 84.8779 45.8601 85.4299 47.5271 85.4299C50.3056 85.4299 51.4169 82.6702 59.4744 54.6594C76.2839 -3.2938 74.8947 2.77748 72.1163 1.25967C68.9211 -0.396147 68.3654 -0.396147 67.3929 1.12168Z" fill="#1C1C1C"/>
<path d="M15.0036 26.148C6.66825 34.427 0 41.7401 0 42.4301C0 43.258 6.80717 50.5711 15.1425 58.8501C29.1736 72.7865 30.4239 73.6144 33.2023 71.9586C34.7305 70.8547 36.1197 69.4749 36.1197 68.647C36.1197 67.8191 30.4239 61.6098 23.6167 54.8486L11.1137 42.4301L23.8946 29.7355C34.8694 18.8348 36.5365 16.4891 35.2862 14.4193C34.4526 13.1775 32.9245 11.9356 31.8131 11.6596C30.7017 11.5217 23.2 18.0069 15.0036 26.148Z" fill="#1C1C1C"/>
<path d="M80.8527 13.0395C79.8803 14.0053 79.1857 15.3852 79.1857 16.2131C79.1857 17.041 84.8815 23.2503 91.6886 30.0115L104.192 42.43L91.4108 55.1246C80.7138 65.7493 78.7689 68.371 80.0192 70.3028C80.8527 71.5446 82.103 72.7865 82.7976 73.0625C83.4923 73.3384 91.2719 66.3012 100.024 57.6083L116 41.7401L100.719 26.5619C92.3833 18.2828 84.8815 11.3837 84.0479 11.3837C83.2144 11.3837 81.8252 12.0736 80.8527 13.0395Z" fill="#1C1C1C"/>
</svg>
