<svg width="31" height="38" viewBox="0 0 31 38" fill="none" xmlns="http://www.w3.org/2000/svg">
<path d="M30.5867 10.64L19.3233 0.285C19.1167 0.0950002 18.8583 0 18.6 0H2.06667C0.93 0 0 0.855 0 1.9V36.1C0 37.145 0.93 38 2.06667 38H28.9333C30.07 38 31 37.145 31 36.1V11.2575C30.9483 10.9725 30.7933 10.83 30.5867 10.64ZM19.6333 3.23L27.4867 10.45H19.6333V3.23ZM28.9333 36.1H2.06667V1.9H17.5667V11.4C17.5667 11.9225 18.0317 12.35 18.6 12.35H28.9333V36.1Z" fill="#1C1C1C"/>
<rect x="7" y="16" width="17" height="3" rx="1" fill="#1C1C1C"/>
<rect x="7" y="21" width="17" height="3" rx="1" fill="#1C1C1C"/>
<rect x="7" y="26" width="17" height="3" rx="1" fill="#1C1C1C"/>
</svg>
